<?xml version="1.0" encoding="utf-8"?>
<!-- Generator: Adobe Illustrator 24.2.1, SVG Export Plug-In . SVG Version: 6.00 Build 0)  -->
<svg version="1.1" id="Layer_1" xmlns="http://www.w3.org/2000/svg" xmlns:xlink="http://www.w3.org/1999/xlink" x="0px" y="0px"
	 viewBox="0 0 612 792" style="enable-background:new 0 0 612 792;" xml:space="preserve">
<g>
	<g>
		<path d="M378.41,448.55c-36.67,0-73.33,0-110,0c0-36.9,0-73.8,0-110.66c37.09,0,73.34,0,110,0
			C378.41,374.99,378.41,411.77,378.41,448.55z M271.89,340.99c0,34.5,0,68.68,0,103.14c34.52,0,68.7,0,103.22,0
			c0-34.49,0-68.66,0-103.14C340.58,340.99,306.39,340.99,271.89,340.99z"/>
		<path d="M302.2,437.61c-7.83,0-15.46,0-23.53,0c0-6.58,0-12.97,0-19.96c11.35,0,22.75,0,35.51,0
			c-9.81-23.75-19.21-46.51-28.84-69.84c11.69,0,22.85,0,34.4,0c0,23.47,0,46.89,0,70.99C314.16,424.77,308.16,431.21,302.2,437.61z
			"/>
		<path d="M327.27,418.8c0-23.74,0-47.18,0-71.03c11.31,0,22.38,0,34.43,0c-9.52,23.06-18.92,45.82-28.67,69.42
			c12.12,0,23.48,0,35.27,0c0,7.03,0,13.4,0,20.2c-7.81,0-15.54,0-23.63,0C338.97,431.3,333.07,424.99,327.27,418.8z"/>
		<path d="M304.04,410.49c-9.11,0-17.05,0-25.41,0c0-19.91,0-39.61,0-59.31c0.22-0.1,0.44-0.2,0.66-0.31
			C287.43,370.48,295.57,390.09,304.04,410.49z"/>
		<path d="M368.46,351.95c0,19.35,0,38.69,0,58.4c-8.37,0-16.44,0-25.36,0c8.17-19.73,16.2-39.14,24.24-58.55
			C367.71,351.85,368.08,351.9,368.46,351.95z"/>
	</g>
</g>
</svg>
